<svg xmlns="http://www.w3.org/2000/svg" xmlns:xlink="http://www.w3.org/1999/xlink" width="121.58" height="102.311" viewBox="0 0 121.58 102.311">
  <defs>
    <linearGradient id="linear-gradient" x1="0.026" y1="0.259" x2="0.923" y2="0.762" gradientUnits="objectBoundingBox">
      <stop offset="0" stop-color="#9e3f63"/>
      <stop offset="1" stop-color="#6a64c8"/>
    </linearGradient>
    <filter id="Union_12" x="0" y="21.332" width="121.58" height="80.979" filterUnits="userSpaceOnUse">
      <feOffset dy="3" input="SourceAlpha"/>
      <feGaussianBlur stdDeviation="3" result="blur"/>
      <feFlood flood-color="#fff" flood-opacity="0"/>
      <feComposite operator="in" in2="blur"/>
      <feComposite in="SourceGraphic"/>
    </filter>
    <linearGradient id="linear-gradient-2" x1="0.5" y1="0.186" x2="0.5" y2="1" gradientUnits="objectBoundingBox">
      <stop offset="0" stop-color="#fea7bf"/>
      <stop offset="0.557" stop-color="#8078c7"/>
      <stop offset="1" stop-color="#9e93ff"/>
    </linearGradient>
    <radialGradient id="radial-gradient" cx="0.507" cy="0.118" r="0.369" gradientUnits="objectBoundingBox">
      <stop offset="0" stop-color="#6d1e3c"/>
      <stop offset="1" stop-color="gray" stop-opacity="0"/>
    </radialGradient>
    <radialGradient id="radial-gradient-2" cx="0.493" cy="0.219" r="0.731" gradientUnits="objectBoundingBox">
      <stop offset="0" stop-color="#ffa7be"/>
      <stop offset="1" stop-color="#bc7792"/>
    </radialGradient>
    <radialGradient id="radial-gradient-3" cx="0.319" cy="0.096" r="0.369" gradientUnits="objectBoundingBox">
      <stop offset="0" stop-color="#5853c4"/>
      <stop offset="1" stop-color="#342f80" stop-opacity="0"/>
    </radialGradient>
    <radialGradient id="radial-gradient-4" cx="0.319" cy="0.096" r="0.369" gradientUnits="objectBoundingBox">
      <stop offset="0" stop-color="#4b45bc"/>
      <stop offset="1" stop-color="#342f80" stop-opacity="0"/>
    </radialGradient>
    <radialGradient id="radial-gradient-5" cx="0.381" cy="0.66" r="0.677" gradientUnits="objectBoundingBox">
      <stop offset="0" stop-color="#c4bef8"/>
      <stop offset="1" stop-color="#8078c8"/>
      <stop offset="1" stop-color="#231f69"/>
    </radialGradient>
    <radialGradient id="radial-gradient-6" cx="0.417" cy="0.663" r="0.677" gradientUnits="objectBoundingBox">
      <stop offset="0" stop-color="#c2befc"/>
      <stop offset="1" stop-color="#7972de"/>
    </radialGradient>
  </defs>
  <g id="Group_18" data-name="Group 18" transform="translate(7.232 0.686)">
    <g id="Group_17" data-name="Group 17" transform="translate(0 0)">
      <g transform="matrix(1, 0, 0, 1, -7.23, -0.69)" filter="url(#Union_12)">
        <path id="Union_12-2" data-name="Union 12" d="M90.929,57.985q-3.02-3.867-3.021-10.955V37.6c0-6.39-2.617-7.468-4.5-7.491-2.019.158-8.551,4.644-8.551,18.124V60.724A3.282,3.282,0,0,1,72,61.852,4.6,4.6,0,0,1,68.657,60.6a4.874,4.874,0,0,1-1.289-3.665V37.6c0-6.39-1.668-8.192-4.89-8.192-.981-.166-3.571,1.383-4.995,4.337a29.342,29.342,0,0,0-3.246,14.327V60.724a3.233,3.233,0,0,1-2.819,1.128A4.273,4.273,0,0,1,48.2,60.6a5.066,5.066,0,0,1-1.208-3.665l.2-7.34c-1.608,3.267-3.648,5.442-7.682,8.1-5.639,3.713-12.727,4.693-20.675,1.957a27.825,27.825,0,0,1-16.414-14.1q-4.79-9.507-.1-23.119T16,3.362A21.343,21.343,0,0,1,34.863,1.306c.667.231,1.333.779,2.35.476S38.932.094,38.932.094l2.425,1.567s-.941,2.721-.427,3.374.559.281,2.943,4.031a16.348,16.348,0,0,1-.112,11.018A20.754,20.754,0,0,1,31.337,33.119a33.65,33.65,0,0,1-22.223.517A18.943,18.943,0,0,0,12.2,45.025c1.537,2.332,6.254,5.419,10.908,7.022s7.4,1.548,12.553-1.547,7.536-6.827,9.8-10.055,3.008-4.606,3.008-4.606l.021.1a31.581,31.581,0,0,1,1.325-2.9,26.949,26.949,0,0,1,2.358-3.619c1.791-3.175,3-4.516,5.779-6.206s5.373-.439,6.089-.314a3.33,3.33,0,0,0,1.268-.318,2.678,2.678,0,0,1,2.065-.175c.45.243-1.328.966-1.181,1.776,2.919-.127,5.77,4.591,6.778,7.065,1.825-4.351,5.452-7.54,10.445-7.54,3.49,0,6.9,2.6,8.969,4.8s3.1,5.37,3.1,9.5v11.44q0,4.591,1.45,6.928a4.751,4.751,0,0,0,4.31,2.335c1.905,0,2.107,3.143-1.652,3.143S92.944,60.563,90.929,57.985ZM10.6,26.465l3.484.713c5.1.818,8.161,1.318,12.49-.067s7.016-4.04,8.757-9.1a8.189,8.189,0,0,0,.011-6.1c-.368-1.189-3.173-2.532-5.519-3.34-7.239-1.884-13.044,4.91-13.044,4.91s-3,3.8-6.042,12.588l0-.009Z" transform="translate(9.5 27.96)" stroke="rgba(0,0,0,0)" stroke-width="1" opacity="0.313" fill="url(#linear-gradient)"/>
      </g>
      <path id="Union_11" data-name="Union 11" d="M90.929,57.985q-3.02-3.867-3.021-10.955V37.6c0-6.39-2.617-7.468-4.5-7.491-2.019.158-8.551,4.644-8.551,18.124V60.724A3.282,3.282,0,0,1,72,61.852,4.6,4.6,0,0,1,68.657,60.6a4.874,4.874,0,0,1-1.289-3.665V37.6c0-6.39-1.668-8.192-4.89-8.192-.981-.166-3.571,1.383-4.995,4.337a29.342,29.342,0,0,0-3.246,14.327V60.724a3.233,3.233,0,0,1-2.819,1.128A4.273,4.273,0,0,1,48.2,60.6a5.066,5.066,0,0,1-1.208-3.665l.2-7.34c-1.608,3.267-3.648,5.442-7.682,8.1-5.639,3.713-12.727,4.693-20.675,1.957a27.825,27.825,0,0,1-16.414-14.1q-4.79-9.507-.1-23.119T16,3.362A21.343,21.343,0,0,1,34.863,1.306c.667.231,1.333.779,2.35.476S38.932.094,38.932.094l2.425,1.567s-.941,2.721-.427,3.374.559.281,2.943,4.031a16.348,16.348,0,0,1-.112,11.018A20.754,20.754,0,0,1,31.337,33.119a33.65,33.65,0,0,1-22.223.517A18.943,18.943,0,0,0,12.2,45.025c1.537,2.332,6.254,5.419,10.908,7.022s7.4,1.548,12.553-1.547,7.536-6.827,9.8-10.055,3.008-4.606,3.008-4.606l.021.1a31.581,31.581,0,0,1,1.325-2.9,26.949,26.949,0,0,1,2.358-3.619c1.791-3.175,3-4.516,5.779-6.206s5.373-.439,6.089-.314a3.33,3.33,0,0,0,1.268-.318,2.678,2.678,0,0,1,2.065-.175c.45.243-1.328.966-1.181,1.776,2.919-.127,5.77,4.591,6.778,7.065,1.825-4.351,5.452-7.54,10.445-7.54,3.49,0,6.9,2.6,8.969,4.8s3.1,5.37,3.1,9.5v11.44q0,4.591,1.45,6.928a4.751,4.751,0,0,0,4.31,2.335c1.905,0,2.107,3.143-1.652,3.143S92.944,60.563,90.929,57.985ZM10.6,26.465l3.484.713c5.1.818,8.161,1.318,12.49-.067s7.016-4.04,8.757-9.1a8.189,8.189,0,0,0,.011-6.1c-.368-1.189-3.173-2.532-5.519-3.34-7.239-1.884-13.044,4.91-13.044,4.91s-3,3.8-6.042,12.588l0-.009Z" transform="translate(0 27.273)" stroke="rgba(0,0,0,0)" stroke-width="1" fill="url(#linear-gradient-2)"/>
      <ellipse id="Ellipse_7" data-name="Ellipse 7" cx="13.615" cy="11.345" rx="13.615" ry="11.345" transform="matrix(0.839, 0.545, -0.545, 0.839, 27.453, 22.706)" fill="url(#radial-gradient)"/>
      <path id="Path_57" data-name="Path 57" d="M12.78,25.508a22.036,22.036,0,0,0,11.8-3.475c1.8-1.269,6.253-5.839,6.253-8.85A6.722,6.722,0,0,0,29.2,7.467C27.057,4.766,21.875.891,21.423.218c-.805-1.2-5.505,2.95-10.072,2.95C3.936,3.168,0,6.055,0,13.09S5.366,25.508,12.78,25.508Z" transform="translate(64.983 13.137) rotate(121)" stroke="rgba(0,0,0,0)" stroke-width="1" fill="url(#radial-gradient-2)"/>
      <ellipse id="Ellipse_8" data-name="Ellipse 8" cx="9.639" cy="7.938" rx="9.639" ry="7.938" transform="matrix(0.839, 0.545, -0.545, 0.839, 59.435, 46.139)" opacity="0.996" fill="url(#radial-gradient-3)"/>
      <path id="Path_71" data-name="Path 71" d="M9.973,0c5.543,0,10.119,3.952,10.119,9.173S15.6,18.626,10.055,18.626,0,15.53,0,10.309,4.43,0,9.973,0Z" transform="matrix(0.839, 0.545, -0.545, 0.839, 80.158, 47.067)" opacity="0.939" fill="url(#radial-gradient-4)"/>
      <path id="Path_58" data-name="Path 58" d="M8.684,0A14.973,14.973,0,0,1,16.7,2.361c1.224.862,4.249,3.967,4.249,6.013a4.568,4.568,0,0,1-1.116,3.884c-1.453,1.835-4.975,4.468-5.282,4.926-.547.816-3.741-2-6.844-2C2.675,15.18,0,13.218,0,8.438A8.342,8.342,0,0,1,8.684,0Z" transform="matrix(-0.326, 0.946, -0.946, -0.326, 80.464, 34.448)" stroke="rgba(0,0,0,0)" stroke-width="1" fill="url(#radial-gradient-5)"/>
      <path id="Path_59" data-name="Path 59" d="M8.684,0A14.973,14.973,0,0,1,16.7,2.361c1.224.862,4.249,3.967,4.249,6.013a4.568,4.568,0,0,1-1.116,3.884c-1.453,1.835-4.975,4.468-5.282,4.926-.547.816-3.741-2-6.844-2C2.675,15.18,0,13.218,0,8.438A8.342,8.342,0,0,1,8.684,0Z" transform="matrix(-0.326, 0.946, -0.946, -0.326, 100.886, 35.582)" stroke="rgba(0,0,0,0)" stroke-width="1" fill="url(#radial-gradient-6)"/>
    </g>
  </g>
</svg>
