<svg xmlns="http://www.w3.org/2000/svg" xmlns:xlink="http://www.w3.org/1999/xlink" width="240.304" height="79.707" viewBox="0 0 240.304 79.707">
  <defs>
    <linearGradient id="linear-gradient" x1="0.026" y1="0.259" x2="0.923" y2="0.762" gradientUnits="objectBoundingBox">
      <stop offset="0" stop-color="#9e3f63"/>
      <stop offset="1" stop-color="#6a64c8"/>
    </linearGradient>
    <filter id="Union_12" x="0" y="9.199" width="240.304" height="70.508" filterUnits="userSpaceOnUse">
      <feOffset dy="3" input="SourceAlpha"/>
      <feGaussianBlur stdDeviation="3" result="blur"/>
      <feFlood flood-color="#fff" flood-opacity="0"/>
      <feComposite operator="in" in2="blur"/>
      <feComposite in="SourceGraphic"/>
    </filter>
    <linearGradient id="linear-gradient-2" x1="0.5" y1="0.186" x2="0.5" y2="1" gradientUnits="objectBoundingBox">
      <stop offset="0" stop-color="#fea7bf"/>
      <stop offset="0.557" stop-color="#8078c7"/>
      <stop offset="1" stop-color="#9e93ff"/>
    </linearGradient>
    <radialGradient id="radial-gradient" cx="0.507" cy="0.118" r="0.369" gradientUnits="objectBoundingBox">
      <stop offset="0" stop-color="#6d1e3c"/>
      <stop offset="1" stop-color="gray" stop-opacity="0"/>
    </radialGradient>
    <radialGradient id="radial-gradient-2" cx="0.493" cy="0.219" r="0.731" gradientUnits="objectBoundingBox">
      <stop offset="0" stop-color="#ffa7be"/>
      <stop offset="1" stop-color="#bc7792"/>
    </radialGradient>
    <radialGradient id="radial-gradient-3" cx="0.319" cy="0.096" r="0.369" gradientUnits="objectBoundingBox">
      <stop offset="0" stop-color="#5853c4"/>
      <stop offset="1" stop-color="#342f80" stop-opacity="0"/>
    </radialGradient>
    <radialGradient id="radial-gradient-4" cx="0.319" cy="0.096" r="0.369" gradientUnits="objectBoundingBox">
      <stop offset="0" stop-color="#4b45bc"/>
      <stop offset="1" stop-color="#342f80" stop-opacity="0"/>
    </radialGradient>
    <radialGradient id="radial-gradient-5" cx="0.381" cy="0.66" r="0.677" gradientUnits="objectBoundingBox">
      <stop offset="0" stop-color="#c4bef8"/>
      <stop offset="1" stop-color="#8078c8"/>
      <stop offset="1" stop-color="#231f69"/>
    </radialGradient>
    <radialGradient id="radial-gradient-6" cx="0.417" cy="0.663" r="0.677" gradientUnits="objectBoundingBox">
      <stop offset="0" stop-color="#c2befc"/>
      <stop offset="1" stop-color="#7972de"/>
    </radialGradient>
  </defs>
  <g id="Group_7" data-name="Group 7" transform="translate(-4544.396 -2240.992)">
    <g transform="matrix(1, 0, 0, 1, 4544.4, 2240.99)" filter="url(#Union_12)">
      <path id="Union_12-2" data-name="Union 12" d="M59.745,50.643a2.821,2.821,0,0,1-.672-2.04V33.331a5.847,5.847,0,0,1-3.632,1.1,5.755,5.755,0,0,1-4.821-2.153,9.708,9.708,0,0,1-1.681-6.1V20.934c0-3.557-1.458-4.158-2.5-4.17-1.124.088-4.76,2.586-4.76,10.09V33.8a1.828,1.828,0,0,1-1.592.628,2.564,2.564,0,0,1-1.861-.7A2.714,2.714,0,0,1,37.5,31.7V20.934c0-3.557-.928-4.561-2.722-4.561-.545-.093-1.988.77-2.78,2.415a16.337,16.337,0,0,0-1.807,7.976V33.8a1.8,1.8,0,0,1-1.569.628,2.38,2.38,0,0,1-1.793-.7,2.821,2.821,0,0,1-.673-2.04l.114-4.087a10.76,10.76,0,0,1-4.277,4.509c-3.139,2.067-7.085,2.613-11.509,1.09a15.488,15.488,0,0,1-9.138-7.851q-2.667-5.292-.057-12.871T8.9,1.872A11.882,11.882,0,0,1,19.408.727c.372.128.742.434,1.309.265s.957-.94.957-.94l1.35.873S22.5,2.439,22.785,2.8a10.354,10.354,0,0,1,1.638,2.244,9.1,9.1,0,0,1-.061,6.133,11.557,11.557,0,0,1-6.917,7.257,18.734,18.734,0,0,1-12.371.288,10.546,10.546,0,0,0,1.716,6.34c.856,1.3,3.482,3.017,6.073,3.909s4.118.862,6.988-.862a16.948,16.948,0,0,0,5.454-5.6c1.26-1.8,1.674-2.565,1.674-2.565l.012.055a17.592,17.592,0,0,1,.738-1.618,14.976,14.976,0,0,1,1.313-2.015,7.852,7.852,0,0,1,3.217-3.455,3.963,3.963,0,0,1,3.39-.175,1.853,1.853,0,0,0,.707-.177,1.49,1.49,0,0,1,1.149-.1c.251.135-.74.537-.657.989,1.625-.07,3.212,2.556,3.773,3.933a6.284,6.284,0,0,1,5.815-4.2c1.943,0,3.842,1.447,4.993,2.672a7.444,7.444,0,0,1,1.726,5.292v6.368a7.418,7.418,0,0,0,.807,3.857,2.644,2.644,0,0,0,2.4,1.3,3.3,3.3,0,0,0,2.713-1.852V14.656a1.8,1.8,0,0,1,1.569-.628,2.381,2.381,0,0,1,1.793.695,2.822,2.822,0,0,1,.673,2.041v.986a7.029,7.029,0,0,1,6.166-3.722,8.093,8.093,0,0,1,5.987,2.152A34.1,34.1,0,0,1,85.8,14.656q.862,0,1.11.5a8.753,8.753,0,0,1,4.5-1.127,8.56,8.56,0,0,1,6.5,2.645,10.024,10.024,0,0,1,2.511,7.2,11.876,11.876,0,0,1-2.354,7.556,7.6,7.6,0,0,1-6.3,3,8.761,8.761,0,0,1-6.57-2.713,10.387,10.387,0,0,1-2.623-7.533q0-4.8,2.424-7.467a30.208,30.208,0,0,0-8.451,1.391A12.657,12.657,0,0,1,78,24.724a10.726,10.726,0,0,1-2.175,7,6.973,6.973,0,0,1-5.673,2.668,5.3,5.3,0,0,1-3.654-1.435A5.877,5.877,0,0,1,64.9,28.378q0-7.354,7.31-10.987c-.777-1.076-2.314-1.15-3.3-1.076A5.89,5.89,0,0,0,64.9,18.609a8.094,8.094,0,0,0-1.793,5.42V50.71a1.8,1.8,0,0,1-1.569.628A2.382,2.382,0,0,1,59.745,50.643ZM85.193,24.937a7.585,7.585,0,0,0,2.569,5.951,6.361,6.361,0,0,0,3.956,1.8,3.84,3.84,0,0,0,2.757-.919,3.055,3.055,0,0,0,1.276-2.208,12.8,12.8,0,0,1-5.4-2.746,10.384,10.384,0,0,1-3.93-6.988C84.739,21.945,85.287,24.865,85.193,24.937ZM67.337,28.378a3.958,3.958,0,0,0,.747,2.762,2.52,2.52,0,0,0,2.064,1c2.452,0,5.1-3.021,4.856-6.931a8.583,8.583,0,0,0-1.431-5.628C69.627,21.74,67.337,24.372,67.337,28.378Zm22.027-12a1.976,1.976,0,0,0-.874,1.726A8.366,8.366,0,0,0,90.731,23.6a10.641,10.641,0,0,0,5.336,3.475q.09-1.7.09-2.915,0-4.663-.987-6.524t-3.722-1.861A3.572,3.572,0,0,0,89.364,16.383ZM5.9,14.733l1.939.4c2.836.456,4.543.733,6.953-.037s3.906-2.249,4.875-5.064a4.557,4.557,0,0,0,.006-3.4c-.2-.662-1.766-1.409-3.072-1.859-4.03-1.049-7.261,2.734-7.261,2.734a25.837,25.837,0,0,0-3.363,7.007l0,0ZM207.94,32.459a5.927,5.927,0,0,1-1.141-1.392q-.233.319-.5.63-2.309,2.735-7.018,2.735a11.778,11.778,0,0,1-6.2-1.534,5.649,5.649,0,0,1-4.135,1.534,5.755,5.755,0,0,1-4.821-2.153,9.708,9.708,0,0,1-1.681-6.1V20.934c0-3.557-.866-4.238-2.66-4.238a4.724,4.724,0,0,0-4.063,2.4c-1.016,1.614-1.394,3.243-1.394,7.041V33.8a1.8,1.8,0,0,1-1.569.628,2.382,2.382,0,0,1-1.794-.7,2.823,2.823,0,0,1-.672-2.04V14.656a1.971,1.971,0,0,1,1.7-.628q2.332,0,2.332,3.363a6.347,6.347,0,0,1,5.964-3.363,6.062,6.062,0,0,1,4.641,1.838,7.444,7.444,0,0,1,1.727,5.292v6.368c0,1.7-.056,2.473.483,3.34s1.845.83,2.906.83a1.924,1.924,0,0,0,1.111-.357,9.815,9.815,0,0,1-2.281-6.886q0-4.91,2.511-7.668a8.287,8.287,0,0,1,6.413-2.757,5.178,5.178,0,0,1,4.126,1.5,5.27,5.27,0,0,1,1.3,3.565,6.842,6.842,0,0,1-2.8,5.583,11.07,11.07,0,0,1-7.018,2.7,5.426,5.426,0,0,0,1.95,3.849,6.538,6.538,0,0,0,4.439,1.457,7.092,7.092,0,0,0,4.978-2.085A6.3,6.3,0,0,0,206,29.017a10.833,10.833,0,0,1-.255-2.433V10.127a2.821,2.821,0,0,1,.673-2.04c.448-.463,4.806-.7,5.493-.7s-2.549.209-2.131.628v6.637h6.144a1.572,1.572,0,0,1,1.233.359,6.03,6.03,0,0,1,.3,2.065l-7.678.147v10.3a5.015,5.015,0,0,0,1.413,3.812c.942.9,1.908.717,3.134.717a4.138,4.138,0,0,0,3.907-1.989c.867-1.375.676-4.2.9-5.612s1.045-1.036,1.359-.784a2.722,2.722,0,0,1,.807,2.377,9.612,9.612,0,0,1-1.816,6.009,6.58,6.58,0,0,1-5.583,2.377A8.6,8.6,0,0,1,207.94,32.459ZM192.8,29.083a2.309,2.309,0,0,0-.755-1.27A11.751,11.751,0,0,0,192.8,29.083Zm4.22-12.663a4.779,4.779,0,0,0-3.874,3.752c-.208,1.922,0,1.376,0,4.664a10.639,10.639,0,0,0,4.821-1.345c1.36-.927,2.466-1.988,2.466-3.811a3.016,3.016,0,0,0-.628-2.287,2.109,2.109,0,0,0-2.073-.983C197.483,16.408,197.241,16.42,197.016,16.42Zm-44,17.317a2.517,2.517,0,0,1-.645-1.519,9.026,9.026,0,0,1-6.53,2.214,10.947,10.947,0,0,1-7.556-2.534,7.7,7.7,0,0,1-1.153-1.282,8.511,8.511,0,0,1-.843,1.349,6.762,6.762,0,0,1-5.74,2.466,7.893,7.893,0,0,1-4.484-1.256,6.531,6.531,0,0,1-3.812,1.256,7.875,7.875,0,0,1-7.444-4.26q-2.6,4.26-6.1,4.26a6.353,6.353,0,0,1-5.471-2.758q-1.973-2.757-1.973-7.735V16.764a2.825,2.825,0,0,1,.672-2.041,2.271,2.271,0,0,1,1.7-.695,2.243,2.243,0,0,1,1.659.628v9.507c0,5.8.867,7.265,3.408,7.265a4.1,4.1,0,0,0,3.258-1.872c.957-1.286,1.63-2.238,1.63-5.707l-.09-6.457a15.48,15.48,0,0,1,.067-1.659,2.369,2.369,0,0,1,.516-1.166,1.541,1.541,0,0,1,1.3-.583q2.511,0,2.511,3.587a28.58,28.58,0,0,1-.269,3.946v2.645c0,5.8,1.181,7.556,4.619,7.556a3.224,3.224,0,0,0,2.062-.493,7.185,7.185,0,0,1-2.376-3.52A15.707,15.707,0,0,1,121,22.5a13.951,13.951,0,0,1,1.278-6.7,4.56,4.56,0,0,1,4.327-2.265,4.312,4.312,0,0,1,3.386,1.435,5.518,5.518,0,0,1,1.278,3.812c0,5.71-.55,9.484-3.031,12.444a5.128,5.128,0,0,0,3.031.561,4.09,4.09,0,0,0,3.5-1.189,4.749,4.749,0,0,0,1.283-2.09,12.3,12.3,0,0,1-.616-4.053q0-4.91,2.511-7.668a8.288,8.288,0,0,1,6.413-2.757,5.177,5.177,0,0,1,4.126,1.5,5.271,5.271,0,0,1,1.3,3.565,6.842,6.842,0,0,1-2.8,5.583,11.167,11.167,0,0,1-7.152,2.22,6.723,6.723,0,0,0,2.085,4.327,6.536,6.536,0,0,0,4.439,1.457,7.094,7.094,0,0,0,4.978-2.085,6.259,6.259,0,0,0,1.009-1.224V14.656a1.8,1.8,0,0,1,1.569-.628,2.381,2.381,0,0,1,1.793.695,2.822,2.822,0,0,1,.673,2.041v3.408q2.242-5.56,6.188-5.56a5.177,5.177,0,0,1,4.126,1.5,4.521,4.521,0,0,1,1.315,3.251,3.247,3.247,0,0,1-.688,2.108,1.9,1.9,0,0,1-1.3.672,1.734,1.734,0,0,1-1.525-.538,5.4,5.4,0,0,0,.269-1.928,2.7,2.7,0,0,0-.593-2.052,2.675,2.675,0,0,0-2.483-.45,5.412,5.412,0,0,0-2.8,2.5,27.531,27.531,0,0,0-1.479,2.752,12.083,12.083,0,0,0-1.032,4.316V32.53l-.447,1.274c-.3.418-.375.628-1.123.628A2.382,2.382,0,0,1,153.019,33.737Zm-29.731-12c0,3.857.957,5.781,2.78,7.814,1.136-2.123,1.659-4.645,1.659-9.608q0-3.991-1.794-3.991Q123.288,15.957,123.288,21.741Zm17.332-3.9a18.061,18.061,0,0,0-.918,6.637c1.853-.239,3.46-.06,4.819-.987a4.667,4.667,0,0,0,2.041-4.126A4.086,4.086,0,0,0,145.8,16.7a2.641,2.641,0,0,0-2.153-.919A3.122,3.122,0,0,0,140.62,17.84Z" transform="translate(9.5 15.87)" stroke="rgba(0,0,0,0)" stroke-width="1" opacity="0.313" fill="url(#linear-gradient)"/>
    </g>
    <path id="Union_11" data-name="Union 11" d="M59.745,50.643a2.821,2.821,0,0,1-.672-2.04V33.331a5.847,5.847,0,0,1-3.632,1.1,5.755,5.755,0,0,1-4.821-2.153,9.708,9.708,0,0,1-1.681-6.1V20.934c0-3.557-1.458-4.158-2.5-4.17-1.124.088-4.76,2.586-4.76,10.09V33.8a1.828,1.828,0,0,1-1.592.628,2.564,2.564,0,0,1-1.861-.7A2.714,2.714,0,0,1,37.5,31.7V20.934c0-3.557-.928-4.561-2.722-4.561-.545-.093-1.988.77-2.78,2.415a16.337,16.337,0,0,0-1.807,7.976V33.8a1.8,1.8,0,0,1-1.569.628,2.38,2.38,0,0,1-1.793-.7,2.821,2.821,0,0,1-.673-2.04l.114-4.087a10.76,10.76,0,0,1-4.277,4.509c-3.139,2.067-7.085,2.613-11.509,1.09a15.488,15.488,0,0,1-9.138-7.851q-2.667-5.292-.057-12.871T8.9,1.872A11.882,11.882,0,0,1,19.408.727c.372.128.742.434,1.309.265s.957-.94.957-.94l1.35.873S22.5,2.439,22.785,2.8a10.354,10.354,0,0,1,1.638,2.244,9.1,9.1,0,0,1-.061,6.133,11.557,11.557,0,0,1-6.917,7.257,18.734,18.734,0,0,1-12.371.288,10.546,10.546,0,0,0,1.716,6.34c.856,1.3,3.482,3.017,6.073,3.909s4.118.862,6.988-.862a16.948,16.948,0,0,0,5.454-5.6c1.26-1.8,1.674-2.565,1.674-2.565l.012.055a17.592,17.592,0,0,1,.738-1.618,14.976,14.976,0,0,1,1.313-2.015,7.852,7.852,0,0,1,3.217-3.455,3.963,3.963,0,0,1,3.39-.175,1.853,1.853,0,0,0,.707-.177,1.49,1.49,0,0,1,1.149-.1c.251.135-.74.537-.657.989,1.625-.07,3.212,2.556,3.773,3.933a6.284,6.284,0,0,1,5.815-4.2c1.943,0,3.842,1.447,4.993,2.672a7.444,7.444,0,0,1,1.726,5.292v6.368a7.418,7.418,0,0,0,.807,3.857,2.644,2.644,0,0,0,2.4,1.3,3.3,3.3,0,0,0,2.713-1.852V14.656a1.8,1.8,0,0,1,1.569-.628,2.381,2.381,0,0,1,1.793.695,2.822,2.822,0,0,1,.673,2.041v.986a7.029,7.029,0,0,1,6.166-3.722,8.093,8.093,0,0,1,5.987,2.152A34.1,34.1,0,0,1,85.8,14.656q.862,0,1.11.5a8.753,8.753,0,0,1,4.5-1.127,8.56,8.56,0,0,1,6.5,2.645,10.024,10.024,0,0,1,2.511,7.2,11.876,11.876,0,0,1-2.354,7.556,7.6,7.6,0,0,1-6.3,3,8.761,8.761,0,0,1-6.57-2.713,10.387,10.387,0,0,1-2.623-7.533q0-4.8,2.424-7.467a30.208,30.208,0,0,0-8.451,1.391A12.657,12.657,0,0,1,78,24.724a10.726,10.726,0,0,1-2.175,7,6.973,6.973,0,0,1-5.673,2.668,5.3,5.3,0,0,1-3.654-1.435A5.877,5.877,0,0,1,64.9,28.378q0-7.354,7.31-10.987c-.777-1.076-2.314-1.15-3.3-1.076A5.89,5.89,0,0,0,64.9,18.609a8.094,8.094,0,0,0-1.793,5.42V50.71a1.8,1.8,0,0,1-1.569.628A2.382,2.382,0,0,1,59.745,50.643ZM85.193,24.937a7.585,7.585,0,0,0,2.569,5.951,6.361,6.361,0,0,0,3.956,1.8,3.84,3.84,0,0,0,2.757-.919,3.055,3.055,0,0,0,1.276-2.208,12.8,12.8,0,0,1-5.4-2.746,10.384,10.384,0,0,1-3.93-6.988C84.739,21.945,85.287,24.865,85.193,24.937ZM67.337,28.378a3.958,3.958,0,0,0,.747,2.762,2.52,2.52,0,0,0,2.064,1c2.452,0,5.1-3.021,4.856-6.931a8.583,8.583,0,0,0-1.431-5.628C69.627,21.74,67.337,24.372,67.337,28.378Zm22.027-12a1.976,1.976,0,0,0-.874,1.726A8.366,8.366,0,0,0,90.731,23.6a10.641,10.641,0,0,0,5.336,3.475q.09-1.7.09-2.915,0-4.663-.987-6.524t-3.722-1.861A3.572,3.572,0,0,0,89.364,16.383ZM5.9,14.733l1.939.4c2.836.456,4.543.733,6.953-.037s3.906-2.249,4.875-5.064a4.557,4.557,0,0,0,.006-3.4c-.2-.662-1.766-1.409-3.072-1.859-4.03-1.049-7.261,2.734-7.261,2.734a25.837,25.837,0,0,0-3.363,7.007l0,0ZM207.94,32.459a5.927,5.927,0,0,1-1.141-1.392q-.233.319-.5.63-2.309,2.735-7.018,2.735a11.778,11.778,0,0,1-6.2-1.534,5.649,5.649,0,0,1-4.135,1.534,5.755,5.755,0,0,1-4.821-2.153,9.708,9.708,0,0,1-1.681-6.1V20.934c0-3.557-.866-4.238-2.66-4.238a4.724,4.724,0,0,0-4.063,2.4c-1.016,1.614-1.394,3.243-1.394,7.041V33.8a1.8,1.8,0,0,1-1.569.628,2.382,2.382,0,0,1-1.794-.7,2.823,2.823,0,0,1-.672-2.04V14.656a1.971,1.971,0,0,1,1.7-.628q2.332,0,2.332,3.363a6.347,6.347,0,0,1,5.964-3.363,6.062,6.062,0,0,1,4.641,1.838,7.444,7.444,0,0,1,1.727,5.292v6.368c0,1.7-.056,2.473.483,3.34s1.845.83,2.906.83a1.924,1.924,0,0,0,1.111-.357,9.815,9.815,0,0,1-2.281-6.886q0-4.91,2.511-7.668a8.287,8.287,0,0,1,6.413-2.757,5.178,5.178,0,0,1,4.126,1.5,5.27,5.27,0,0,1,1.3,3.565,6.842,6.842,0,0,1-2.8,5.583,11.07,11.07,0,0,1-7.018,2.7,5.426,5.426,0,0,0,1.95,3.849,6.538,6.538,0,0,0,4.439,1.457,7.092,7.092,0,0,0,4.978-2.085A6.3,6.3,0,0,0,206,29.017a10.833,10.833,0,0,1-.255-2.433V10.127a2.821,2.821,0,0,1,.673-2.04c.448-.463,4.806-.7,5.493-.7s-2.549.209-2.131.628v6.637h6.144a1.572,1.572,0,0,1,1.233.359,6.03,6.03,0,0,1,.3,2.065l-7.678.147v10.3a5.015,5.015,0,0,0,1.413,3.812c.942.9,1.908.717,3.134.717a4.138,4.138,0,0,0,3.907-1.989c.867-1.375.676-4.2.9-5.612s1.045-1.036,1.359-.784a2.722,2.722,0,0,1,.807,2.377,9.612,9.612,0,0,1-1.816,6.009,6.58,6.58,0,0,1-5.583,2.377A8.6,8.6,0,0,1,207.94,32.459ZM192.8,29.083a2.309,2.309,0,0,0-.755-1.27A11.751,11.751,0,0,0,192.8,29.083Zm4.22-12.663a4.779,4.779,0,0,0-3.874,3.752c-.208,1.922,0,1.376,0,4.664a10.639,10.639,0,0,0,4.821-1.345c1.36-.927,2.466-1.988,2.466-3.811a3.016,3.016,0,0,0-.628-2.287,2.109,2.109,0,0,0-2.073-.983C197.483,16.408,197.241,16.42,197.016,16.42Zm-44,17.317a2.517,2.517,0,0,1-.645-1.519,9.026,9.026,0,0,1-6.53,2.214,10.947,10.947,0,0,1-7.556-2.534,7.7,7.7,0,0,1-1.153-1.282,8.511,8.511,0,0,1-.843,1.349,6.762,6.762,0,0,1-5.74,2.466,7.893,7.893,0,0,1-4.484-1.256,6.531,6.531,0,0,1-3.812,1.256,7.875,7.875,0,0,1-7.444-4.26q-2.6,4.26-6.1,4.26a6.353,6.353,0,0,1-5.471-2.758q-1.973-2.757-1.973-7.735V16.764a2.825,2.825,0,0,1,.672-2.041,2.271,2.271,0,0,1,1.7-.695,2.243,2.243,0,0,1,1.659.628v9.507c0,5.8.867,7.265,3.408,7.265a4.1,4.1,0,0,0,3.258-1.872c.957-1.286,1.63-2.238,1.63-5.707l-.09-6.457a15.48,15.48,0,0,1,.067-1.659,2.369,2.369,0,0,1,.516-1.166,1.541,1.541,0,0,1,1.3-.583q2.511,0,2.511,3.587a28.58,28.58,0,0,1-.269,3.946v2.645c0,5.8,1.181,7.556,4.619,7.556a3.224,3.224,0,0,0,2.062-.493,7.185,7.185,0,0,1-2.376-3.52A15.707,15.707,0,0,1,121,22.5a13.951,13.951,0,0,1,1.278-6.7,4.56,4.56,0,0,1,4.327-2.265,4.312,4.312,0,0,1,3.386,1.435,5.518,5.518,0,0,1,1.278,3.812c0,5.71-.55,9.484-3.031,12.444a5.128,5.128,0,0,0,3.031.561,4.09,4.09,0,0,0,3.5-1.189,4.749,4.749,0,0,0,1.283-2.09,12.3,12.3,0,0,1-.616-4.053q0-4.91,2.511-7.668a8.288,8.288,0,0,1,6.413-2.757,5.177,5.177,0,0,1,4.126,1.5,5.271,5.271,0,0,1,1.3,3.565,6.842,6.842,0,0,1-2.8,5.583,11.167,11.167,0,0,1-7.152,2.22,6.723,6.723,0,0,0,2.085,4.327,6.536,6.536,0,0,0,4.439,1.457,7.094,7.094,0,0,0,4.978-2.085,6.259,6.259,0,0,0,1.009-1.224V14.656a1.8,1.8,0,0,1,1.569-.628,2.381,2.381,0,0,1,1.793.695,2.822,2.822,0,0,1,.673,2.041v3.408q2.242-5.56,6.188-5.56a5.177,5.177,0,0,1,4.126,1.5,4.521,4.521,0,0,1,1.315,3.251,3.247,3.247,0,0,1-.688,2.108,1.9,1.9,0,0,1-1.3.672,1.734,1.734,0,0,1-1.525-.538,5.4,5.4,0,0,0,.269-1.928,2.7,2.7,0,0,0-.593-2.052,2.675,2.675,0,0,0-2.483-.45,5.412,5.412,0,0,0-2.8,2.5,27.531,27.531,0,0,0-1.479,2.752,12.083,12.083,0,0,0-1.032,4.316V32.53l-.447,1.274c-.3.418-.375.628-1.123.628A2.382,2.382,0,0,1,153.019,33.737Zm-29.731-12c0,3.857.957,5.781,2.78,7.814,1.136-2.123,1.659-4.645,1.659-9.608q0-3.991-1.794-3.991Q123.288,15.957,123.288,21.741Zm17.332-3.9a18.061,18.061,0,0,0-.918,6.637c1.853-.239,3.46-.06,4.819-.987a4.667,4.667,0,0,0,2.041-4.126A4.086,4.086,0,0,0,145.8,16.7a2.641,2.641,0,0,0-2.153-.919A3.122,3.122,0,0,0,140.62,17.84Z" transform="translate(4552.633 2256.861)" stroke="rgba(0,0,0,0)" stroke-width="1" fill="url(#linear-gradient-2)"/>
    <ellipse id="Ellipse_7" data-name="Ellipse 7" cx="7.579" cy="6.316" rx="7.579" ry="6.316" transform="matrix(0.839, 0.545, -0.545, 0.839, 4567.917, 2254.319)" fill="url(#radial-gradient)"/>
    <path id="Path_57" data-name="Path 57" d="M7.115,14.2a12.267,12.267,0,0,0,6.571-1.935c1-.706,3.481-3.25,3.481-4.926a3.742,3.742,0,0,0-.914-3.182C15.062,2.653,12.177.5,11.926.121c-.448-.668-3.065,1.642-5.607,1.642C2.191,1.764,0,3.371,0,7.287A6.835,6.835,0,0,0,7.115,14.2Z" transform="translate(4588.809 2248.992) rotate(121)" stroke="rgba(0,0,0,0)" stroke-width="1" fill="url(#radial-gradient-2)"/>
    <ellipse id="Ellipse_8" data-name="Ellipse 8" cx="5.366" cy="4.419" rx="5.366" ry="4.419" transform="matrix(0.839, 0.545, -0.545, 0.839, 4585.72, 2267.364)" opacity="0.996" fill="url(#radial-gradient-3)"/>
    <path id="Path_71" data-name="Path 71" d="M5.552,0a5.349,5.349,0,0,1,5.633,5.106A5.432,5.432,0,0,1,5.6,10.369c-3.086,0-5.6-1.724-5.6-4.63A5.809,5.809,0,0,1,5.552,0Z" transform="matrix(0.839, 0.545, -0.545, 0.839, 4597.256, 2267.88)" opacity="0.939" fill="url(#radial-gradient-4)"/>
    <path id="Path_58" data-name="Path 58" d="M4.834,0A8.336,8.336,0,0,1,9.3,1.315c.681.48,2.365,2.209,2.365,3.347a2.543,2.543,0,0,1-.621,2.162C10.235,7.846,8.274,9.312,8.1,9.566c-.3.454-2.083-1.116-3.81-1.116C1.489,8.45,0,7.358,0,4.7A4.644,4.644,0,0,1,4.834,0Z" transform="matrix(-0.326, 0.946, -0.946, -0.326, 4597.427, 2260.855)" stroke="rgba(0,0,0,0)" stroke-width="1" fill="url(#radial-gradient-5)"/>
    <path id="Path_59" data-name="Path 59" d="M4.834,0A8.336,8.336,0,0,1,9.3,1.315c.681.48,2.365,2.209,2.365,3.347a2.543,2.543,0,0,1-.621,2.162C10.235,7.846,8.274,9.312,8.1,9.566c-.3.454-2.083-1.116-3.81-1.116C1.489,8.45,0,7.358,0,4.7A4.644,4.644,0,0,1,4.834,0Z" transform="matrix(-0.326, 0.946, -0.946, -0.326, 4608.795, 2261.487)" stroke="rgba(0,0,0,0)" stroke-width="1" fill="url(#radial-gradient-6)"/>
  </g>
</svg>
