<svg xmlns="http://www.w3.org/2000/svg" xmlns:xlink="http://www.w3.org/1999/xlink" width="155.037" height="131.38" viewBox="0 0 155.037 131.38">
  <defs>
    <linearGradient id="linear-gradient" x1="0.026" y1="0.259" x2="0.923" y2="0.762" gradientUnits="objectBoundingBox">
      <stop offset="0" stop-color="#9e3f63"/>
      <stop offset="1" stop-color="#6a64c8"/>
    </linearGradient>
    <filter id="Union_12" x="0" y="30.258" width="155.037" height="101.122" filterUnits="userSpaceOnUse">
      <feOffset dy="3" input="SourceAlpha"/>
      <feGaussianBlur stdDeviation="3" result="blur"/>
      <feFlood flood-color="#fff" flood-opacity="0"/>
      <feComposite operator="in" in2="blur"/>
      <feComposite in="SourceGraphic"/>
    </filter>
    <linearGradient id="linear-gradient-2" x1="0.5" y1="0.186" x2="0.5" y2="1" gradientUnits="objectBoundingBox">
      <stop offset="0" stop-color="#fea7bf"/>
      <stop offset="0.557" stop-color="#8078c7"/>
      <stop offset="1" stop-color="#9e93ff"/>
    </linearGradient>
    <radialGradient id="radial-gradient" cx="0.507" cy="0.118" r="0.369" gradientUnits="objectBoundingBox">
      <stop offset="0" stop-color="#6d1e3c"/>
      <stop offset="1" stop-color="gray" stop-opacity="0"/>
    </radialGradient>
    <radialGradient id="radial-gradient-2" cx="0.493" cy="0.219" r="0.731" gradientUnits="objectBoundingBox">
      <stop offset="0" stop-color="#ffa7be"/>
      <stop offset="1" stop-color="#bc7792"/>
    </radialGradient>
    <radialGradient id="radial-gradient-3" cx="0.319" cy="0.096" r="0.369" gradientUnits="objectBoundingBox">
      <stop offset="0" stop-color="#5853c4"/>
      <stop offset="1" stop-color="#342f80" stop-opacity="0"/>
    </radialGradient>
    <radialGradient id="radial-gradient-4" cx="0.319" cy="0.096" r="0.369" gradientUnits="objectBoundingBox">
      <stop offset="0" stop-color="#4b45bc"/>
      <stop offset="1" stop-color="#342f80" stop-opacity="0"/>
    </radialGradient>
    <radialGradient id="radial-gradient-5" cx="0.381" cy="0.66" r="0.677" gradientUnits="objectBoundingBox">
      <stop offset="0" stop-color="#c4bef8"/>
      <stop offset="1" stop-color="#8078c8"/>
      <stop offset="1" stop-color="#231f69"/>
    </radialGradient>
    <radialGradient id="radial-gradient-6" cx="0.417" cy="0.663" r="0.677" gradientUnits="objectBoundingBox">
      <stop offset="0" stop-color="#c2befc"/>
      <stop offset="1" stop-color="#7972de"/>
    </radialGradient>
  </defs>
  <g id="Group_51919" data-name="Group 51919" transform="translate(6.491 0.686)">
    <g id="Group_17" data-name="Group 17" transform="translate(0.001 0)">
      <g transform="matrix(1, 0, 0, 1, -6.49, -0.69)" filter="url(#Union_12)">
        <path id="Union_12-2" data-name="Union 12" d="M120.586,76.9q-4-5.128-4.007-14.529V49.87c0-8.474-3.471-9.9-5.966-9.934-2.677.21-11.34,6.159-11.34,24.036V80.53q-1.069,1.495-3.791,1.5a6.1,6.1,0,0,1-4.433-1.657,6.464,6.464,0,0,1-1.709-4.86V49.87c0-8.474-2.212-10.864-6.485-10.864-1.3-.221-4.736,1.834-6.624,5.752s-4.305,9.1-4.305,19V80.53q-1.066,1.495-3.739,1.5a5.666,5.666,0,0,1-4.272-1.657,6.719,6.719,0,0,1-1.6-4.86l.271-9.735c-2.132,4.333-4.838,7.217-10.187,10.74-7.478,4.924-16.878,6.224-27.418,2.6a36.9,36.9,0,0,1-21.767-18.7Q-3.141,47.8,3.074,29.748T21.213,4.459A28.3,28.3,0,0,1,46.234,1.731c.885.306,1.767,1.033,3.117.631S51.63.125,51.63.125L54.846,2.2S53.6,5.812,54.28,6.679s.742.373,3.9,5.345a21.681,21.681,0,0,1-.148,14.612A27.523,27.523,0,0,1,41.558,43.921a44.626,44.626,0,0,1-29.471.686c-.147,7.4,2.048,12.011,4.088,15.1S24.468,66.9,30.64,69.022s9.811,2.053,16.647-2.051,9.994-9.053,12.993-13.335,3.988-6.108,3.988-6.108.01.045.028.13A41.882,41.882,0,0,1,66.053,43.8a35.738,35.738,0,0,1,3.127-4.8c2.375-4.211,3.976-5.989,7.664-8.23s7.125-.582,8.075-.416a4.416,4.416,0,0,0,1.682-.421,3.552,3.552,0,0,1,2.739-.232c.6.322-1.762,1.281-1.566,2.355,3.871-.168,7.651,6.089,8.988,9.37,2.42-5.77,7.23-10,13.852-10,4.629,0,9.153,3.446,11.895,6.367s4.113,7.121,4.113,12.6V65.574q0,6.089,1.923,9.187a6.3,6.3,0,0,0,5.716,3.1c2.527,0,2.795,4.168-2.19,4.168S123.258,80.316,120.586,76.9ZM14.059,35.1l4.62.946c6.758,1.085,10.822,1.747,16.563-.089s9.3-5.358,11.613-12.063a10.86,10.86,0,0,0,.014-8.093c-.488-1.577-4.207-3.357-7.319-4.43-9.6-2.5-17.3,6.512-17.3,6.512s-3.979,5.036-8.013,16.694l0-.012S14.152,34.827,14.059,35.1Z" transform="translate(9.5 36.85)" stroke="rgba(0,0,0,0)" stroke-width="1" opacity="0.313" fill="url(#linear-gradient)"/>
      </g>
      <path id="Union_11" data-name="Union 11" d="M120.586,76.9q-4-5.128-4.007-14.529V49.87c0-8.474-3.471-9.9-5.966-9.934-2.677.21-11.34,6.159-11.34,24.036V80.53q-1.069,1.495-3.791,1.5a6.1,6.1,0,0,1-4.433-1.657,6.464,6.464,0,0,1-1.709-4.86V49.87c0-8.474-2.212-10.864-6.485-10.864-1.3-.221-4.736,1.834-6.624,5.752s-4.305,9.1-4.305,19V80.53q-1.066,1.495-3.739,1.5a5.666,5.666,0,0,1-4.272-1.657,6.719,6.719,0,0,1-1.6-4.86l.271-9.735c-2.132,4.333-4.838,7.217-10.187,10.74-7.478,4.924-16.878,6.224-27.418,2.6a36.9,36.9,0,0,1-21.767-18.7Q-3.141,47.8,3.074,29.748T21.213,4.459A28.3,28.3,0,0,1,46.234,1.731c.885.306,1.767,1.033,3.117.631S51.63.125,51.63.125L54.846,2.2S53.6,5.812,54.28,6.679s.742.373,3.9,5.345a21.681,21.681,0,0,1-.148,14.612A27.523,27.523,0,0,1,41.558,43.921a44.626,44.626,0,0,1-29.471.686c-.147,7.4,2.048,12.011,4.088,15.1S24.468,66.9,30.64,69.022s9.811,2.053,16.647-2.051,9.994-9.053,12.993-13.335,3.988-6.108,3.988-6.108.01.045.028.13A41.882,41.882,0,0,1,66.053,43.8a35.738,35.738,0,0,1,3.127-4.8c2.375-4.211,3.976-5.989,7.664-8.23s7.125-.582,8.075-.416a4.416,4.416,0,0,0,1.682-.421,3.552,3.552,0,0,1,2.739-.232c.6.322-1.762,1.281-1.566,2.355,3.871-.168,7.651,6.089,8.988,9.37,2.42-5.77,7.23-10,13.852-10,4.629,0,9.153,3.446,11.895,6.367s4.113,7.121,4.113,12.6V65.574q0,6.089,1.923,9.187a6.3,6.3,0,0,0,5.716,3.1c2.527,0,2.795,4.168-2.19,4.168S123.258,80.316,120.586,76.9ZM14.059,35.1l4.62.946c6.758,1.085,10.822,1.747,16.563-.089s9.3-5.358,11.613-12.063a10.86,10.86,0,0,0,.014-8.093c-.488-1.577-4.207-3.357-7.319-4.43-9.6-2.5-17.3,6.512-17.3,6.512s-3.979,5.036-8.013,16.694l0-.012S14.152,34.827,14.059,35.1Z" transform="translate(0 36.169)" stroke="rgba(0,0,0,0)" stroke-width="1" fill="url(#linear-gradient-2)"/>
      <ellipse id="Ellipse_7" data-name="Ellipse 7" cx="18.055" cy="15.046" rx="18.055" ry="15.046" transform="matrix(0.839, 0.545, -0.545, 0.839, 36.407, 30.112)" fill="url(#radial-gradient)"/>
      <path id="Path_57" data-name="Path 57" d="M16.949,33.827A29.224,29.224,0,0,0,32.6,29.219c2.388-1.683,8.293-7.743,8.293-11.736,0-1.573.816-3.808-2.177-7.581C35.882,6.32,29.009,1.182,28.41.289,27.342-1.3,21.109,4.2,15.052,4.2,5.22,4.2,0,8.03,0,17.359S7.117,33.827,16.949,33.827Z" transform="translate(86.178 17.422) rotate(121)" stroke="rgba(0,0,0,0)" stroke-width="1" fill="url(#radial-gradient-2)"/>
      <ellipse id="Ellipse_8" data-name="Ellipse 8" cx="12.783" cy="10.527" rx="12.783" ry="10.527" transform="matrix(0.839, 0.545, -0.545, 0.839, 78.82, 61.188)" opacity="0.996" fill="url(#radial-gradient-3)"/>
      <path id="Path_71" data-name="Path 71" d="M13.225,0c7.35,0,13.419,5.241,13.419,12.165S20.685,24.7,13.335,24.7,0,20.6,0,13.671,5.875,0,13.225,0Z" transform="matrix(0.839, 0.545, -0.545, 0.839, 106.302, 62.418)" opacity="0.939" fill="url(#radial-gradient-4)"/>
      <path id="Path_58" data-name="Path 58" d="M11.517,0A19.857,19.857,0,0,1,22.153,3.132c1.623,1.143,5.635,5.261,5.635,7.974a6.057,6.057,0,0,1-1.48,5.151c-1.927,2.434-6.6,5.925-7,6.532-.726,1.081-4.961-2.658-9.076-2.658C3.547,20.131,0,17.529,0,11.19S4.836,0,11.517,0Z" transform="matrix(-0.326, 0.946, -0.946, -0.326, 106.707, 45.683)" stroke="rgba(0,0,0,0)" stroke-width="1" fill="url(#radial-gradient-5)"/>
      <path id="Path_59" data-name="Path 59" d="M11.517,0A19.857,19.857,0,0,1,22.153,3.132c1.623,1.143,5.635,5.261,5.635,7.974a6.057,6.057,0,0,1-1.48,5.151c-1.927,2.434-6.6,5.925-7,6.532-.726,1.081-4.961-2.658-9.076-2.658C3.547,20.131,0,17.529,0,11.19S4.836,0,11.517,0Z" transform="matrix(-0.326, 0.946, -0.946, -0.326, 133.79, 47.188)" stroke="rgba(0,0,0,0)" stroke-width="1" fill="url(#radial-gradient-6)"/>
    </g>
  </g>
</svg>
